<svg width="200" height="50" viewBox="0 0 200 50" fill="none" xmlns="http://www.w3.org/2000/svg">
<rect width="200" height="50" fill="#2C2D84"/>
<path d="M70.3584 10L60.175 20.175H70.3584V40.5333L80.5334 30.3833V10H70.3584Z" fill="#EA5616"/>
<path d="M60.175 40.5333L70.3583 30.3583H60.175V10L50 20.15V40.5333H60.175ZM90.7167 35.4417H96.0583V19.6667H104.167V35.4417H109.508V15.0917H90.7167V35.4417ZM142.625 22.7083H138.058V19.6667H148.225V15.0833H132.708V35.4417H142.875C146.95 35.4417 150 33.4 150 29.075C150 24.75 146.95 22.7083 142.617 22.7083H142.625ZM142.108 31.1H138.05V27.05H142.108C143.367 27.05 144.608 27.55 144.608 29.075C144.608 30.6 143.333 31.1 142.108 31.1ZM122.617 31.1C119.05 31.1 117.042 28.4833 117.042 25.2667C117.042 22.675 118.5 19.4333 122.508 19.4333C123.407 19.4411 124.292 19.6458 125.103 20.0332C125.913 20.4205 126.629 20.9809 127.2 21.675L130.45 18.425C129.448 17.2265 128.195 16.2627 126.779 15.6018C125.364 14.9408 123.821 14.5988 122.258 14.6C120.851 14.5628 119.451 14.8139 118.144 15.3378C116.838 15.8617 115.652 16.6473 114.659 17.6463C113.667 18.6453 112.89 19.8368 112.376 21.1472C111.861 22.4577 111.62 23.8596 111.667 25.2667C111.649 27.5109 112.344 29.7028 113.653 31.5266C114.96 33.3504 116.813 34.7121 118.944 35.4154C121.076 36.1188 123.375 36.1274 125.512 35.4403C127.648 34.7531 129.512 33.4055 130.833 31.5917L127.567 28.325C127.048 29.1849 126.314 29.8947 125.437 30.3843C124.56 30.8738 123.571 31.1263 122.567 31.1167" fill="white"/>
</svg>
