<svg width="200" height="50" viewBox="0 0 200 50" fill="none" xmlns="http://www.w3.org/2000/svg">
<path d="M64.43 6.67969L52.21 18.8897H64.43V43.3197L76.64 31.1397V6.67969H64.43Z" fill="#EA5616"/>
<path d="M52.21 43.3197L64.43 31.1097H52.21V6.67969L40 18.8597V43.3197H52.21ZM88.86 37.2097H95.27V18.2797H105V37.2097H111.41V12.7897H88.86V37.2097ZM151.15 21.9297H145.67V18.2797H157.87V12.7797H139.25V37.2097H151.45C156.34 37.2097 160 34.7597 160 29.5697C160 24.3797 156.34 21.9297 151.14 21.9297H151.15ZM150.53 31.9997H145.66V27.1397H150.53C152.04 27.1397 153.53 27.7397 153.53 29.5697C153.53 31.3997 152 31.9997 150.53 31.9997ZM127.14 31.9997C122.86 31.9997 120.45 28.8597 120.45 24.9997C120.45 21.8897 122.2 17.9997 127.01 17.9997C128.088 18.009 129.151 18.2547 130.124 18.7195C131.096 19.1843 131.955 19.8568 132.64 20.6897L136.54 16.7897C135.338 15.3515 133.834 14.1949 132.135 13.4018C130.437 12.6086 128.585 12.1983 126.71 12.1997C125.021 12.1551 123.341 12.4564 121.773 13.0851C120.205 13.7137 118.782 14.6564 117.591 15.8553C116.401 17.0541 115.468 18.4838 114.851 20.0563C114.233 21.6289 113.944 23.3112 114 24.9997C113.979 27.6928 114.813 30.3231 116.383 32.5116C117.952 34.7002 120.176 36.3342 122.733 37.1782C125.291 38.0222 128.05 38.0326 130.614 37.208C133.178 36.3834 135.414 34.7663 137 32.5897L133.08 28.6697C132.458 29.7016 131.577 30.5533 130.524 31.1408C129.472 31.7283 128.285 32.0312 127.08 32.0197" fill="#2C2D84"/>
</svg>
