<svg width="100" height="31" viewBox="0 0 100 31" fill="none" xmlns="http://www.w3.org/2000/svg">
<path d="M20.3584 0L10.175 10.175H20.3584V30.5333L30.5334 20.3833V0H20.3584Z" fill="#EA5616"/>
<path d="M10.175 30.5333L20.3583 20.3583H10.175V0L0 10.15V30.5333H10.175ZM40.7167 25.4417H46.0583V9.66668H54.1667V25.4417H59.5083V5.09167H40.7167V25.4417ZM92.625 12.7083H88.0583V9.66668H98.225V5.08334H82.7083V25.4417H92.875C96.95 25.4417 100 23.4 100 19.075C100 14.75 96.95 12.7083 92.6167 12.7083H92.625ZM92.1083 21.1H88.05V17.05H92.1083C93.3667 17.05 94.6083 17.55 94.6083 19.075C94.6083 20.6 93.3333 21.1 92.1083 21.1ZM72.6167 21.1C69.05 21.1 67.0417 18.4833 67.0417 15.2667C67.0417 12.675 68.5 9.43334 72.5083 9.43334C73.4067 9.44109 74.2925 9.64584 75.1033 10.0332C75.9133 10.4205 76.6292 10.9809 77.2 11.675L80.45 8.42501C79.4483 7.22651 78.195 6.26267 76.7792 5.60176C75.3642 4.94076 73.8208 4.59884 72.2583 4.60001C70.8508 4.56284 69.4508 4.81392 68.1442 5.33784C66.8375 5.86167 65.6517 6.64726 64.6592 7.64634C63.6675 8.64534 62.89 9.83676 62.3758 11.1472C61.8608 12.4577 61.62 13.8596 61.6667 15.2667C61.6492 17.5109 62.3442 19.7028 63.6525 21.5266C64.96 23.3504 66.8133 24.7121 68.9442 25.4154C71.0758 26.1188 73.375 26.1274 75.5117 25.4403C77.6483 24.7531 79.5117 23.4055 80.8333 21.5917L77.5667 18.325C77.0483 19.1849 76.3142 19.8947 75.4367 20.3843C74.56 20.8738 73.5708 21.1263 72.5667 21.1167" fill="white"/>
</svg>
